<?xml version="1.0" encoding="UTF-8" standalone="no"?>
<!-- Created with Inkscape (http://www.inkscape.org/) -->

<svg
        xmlns:dc="http://purl.org/dc/elements/1.1/"
        xmlns:cc="http://creativecommons.org/ns#"
        xmlns:rdf="http://www.w3.org/1999/02/22-rdf-syntax-ns#"
        xmlns:svg="http://www.w3.org/2000/svg"
        xmlns="http://www.w3.org/2000/svg"
        xmlns:sodipodi="http://sodipodi.sourceforge.net/DTD/sodipodi-0.dtd"
        xmlns:inkscape="http://www.inkscape.org/namespaces/inkscape"
        width="123.22253"
        height="75.563202"
        viewBox="0 0 32.602626 19.992763"
        version="1.1"
        id="svg9308"
        inkscape:version="0.92.0 r15299"
        sodipodi:docname="LafargeHolcim.svg">


  <g
          inkscape:label="Layer 1"
          inkscape:groupmode="layer"
          id="layer1"
          transform="translate(-73.789311,-147.77609)">
    <g
            id="g9047"
            transform="matrix(0.35277777,0,0,-0.35277777,49.992298,408.40796)">
      <g
              id="g9049"
              clip-path="url(#clipPath9053)">
        <g
                id="g9055"
                transform="translate(112.7841,690.8466)">
          <path
                  d="M 0,0 C 0.783,0 1.37,-0.563 1.37,-1.272 H -1.542 C -1.517,-0.514 -0.881,0 0,0 m 0.073,-5.408 c 1.028,0 2.031,0.269 2.888,1.175 L 1.86,-3.132 C 1.394,-3.573 0.856,-3.793 0.171,-3.793 c -1.003,0 -1.664,0.514 -1.737,1.248 h 4.845 c 0.025,0.294 0.025,0.636 0.025,0.636 0,2.056 -1.346,3.475 -3.255,3.475 -2.129,0 -3.597,-1.444 -3.597,-3.499 0,-2.105 1.419,-3.475 3.621,-3.475 m 36.608,6.803 h 1.958 V 0.563 c 0.269,0.562 0.905,0.979 1.737,0.979 0.906,0 1.493,-0.367 1.811,-1.053 0.416,0.808 1.248,1.053 2.178,1.053 1.517,0 2.349,-1.053 2.349,-2.766 v -4.037 h -1.958 v 3.793 c 0,0.783 -0.342,1.272 -0.978,1.272 -0.661,0 -1.102,-0.563 -1.102,-1.321 v -3.744 h -1.958 v 3.793 c 0,0.783 -0.342,1.272 -0.977,1.272 -0.637,0 -1.102,-0.563 -1.102,-1.321 v -3.744 h -1.958 z m -3.524,0 h 1.958 v -6.656 h -1.958 z m -0.146,2.031 c 0,0.636 0.514,1.125 1.101,1.125 0.636,0 1.126,-0.489 1.126,-1.125 0,-0.612 -0.49,-1.102 -1.126,-1.102 -0.587,0 -1.101,0.49 -1.101,1.102 M 29.242,1.59 c 0.979,0 1.909,-0.318 2.765,-1.223 l -1.248,-1.223 c -0.416,0.416 -0.832,0.685 -1.517,0.685 -0.954,0 -1.713,-0.735 -1.713,-1.738 0,-1.003 0.759,-1.737 1.713,-1.737 0.685,0 1.101,0.244 1.517,0.685 l 1.248,-1.224 c -0.856,-0.929 -1.786,-1.247 -2.765,-1.247 -2.178,0 -3.67,1.443 -3.67,3.523 0,2.007 1.59,3.499 3.67,3.499 m -6.851,2.594 h 1.982 v -9.446 h -1.982 z m -4.895,-7.855 c 1.004,0 1.738,0.734 1.738,1.738 0,1.003 -0.734,1.737 -1.738,1.737 -0.978,0 -1.713,-0.734 -1.713,-1.737 0,-1.004 0.735,-1.738 1.713,-1.738 m 0,5.261 c 2.105,0 3.695,-1.516 3.695,-3.523 0,-2.007 -1.59,-3.524 -3.695,-3.524 -2.129,0 -3.67,1.493 -3.67,3.524 0,2.007 1.59,3.523 3.67,3.523 M 4.919,3.94 H 6.925 V 0.392 h 3.671 V 3.94 h 2.031 v -9.201 h -2.031 v 3.817 H 6.925 V -5.261 H 4.919 Z M -8.32,-3.573 c 0.979,0 1.738,0.71 1.738,1.64 0,0.954 -0.759,1.664 -1.738,1.664 -0.955,0 -1.689,-0.71 -1.689,-1.664 0,-0.93 0.734,-1.64 1.689,-1.64 m -0.367,5.09 c 1.003,0 1.786,-0.416 1.982,-1.003 v 0.881 h 1.957 v -5.531 c 0,-1.37 -0.22,-2.667 -1.247,-3.45 -0.612,-0.465 -1.493,-0.759 -2.423,-0.759 -1.272,0 -2.325,0.27 -3.23,0.906 l 0.905,1.444 c 0.612,-0.367 1.273,-0.637 2.056,-0.637 0.539,0 1.027,0.123 1.346,0.343 0.587,0.392 0.685,1.15 0.685,1.664 v 0.147 c -0.269,-0.465 -1.052,-0.808 -2.031,-0.808 -1.933,0 -3.304,1.395 -3.304,3.353 0,1.957 1.42,3.45 3.304,3.45 m -8.027,-0.122 h 1.958 V 0.489 c 0.294,0.661 0.881,1.053 1.811,1.053 0.171,0 0.392,-0.025 0.514,-0.049 v -1.835 c -0.196,0.024 -0.416,0.048 -0.66,0.048 -1.126,0 -1.665,-0.636 -1.665,-1.713 v -3.254 h -1.958 z m -5.139,-4.992 c 0.98,0 1.738,0.71 1.738,1.664 0,0.954 -0.758,1.664 -1.738,1.664 -0.953,0 -1.688,-0.71 -1.688,-1.664 0,-0.954 0.735,-1.664 1.688,-1.664 m -0.366,5.114 c 1.027,0 1.786,-0.416 1.982,-1.003 v 0.881 h 1.958 v -6.656 h -1.958 v 0.881 c -0.196,-0.563 -0.955,-0.979 -1.982,-0.979 -1.934,0 -3.304,1.419 -3.304,3.426 0,1.957 1.42,3.45 3.304,3.45 m -7.17,-1.762 h -0.954 v 1.64 h 0.954 v 0.416 c 0,1.101 0.269,1.664 0.783,2.055 0.563,0.465 1.248,0.49 1.835,0.49 0.269,0 0.685,-0.025 0.832,-0.074 V 2.716 c -0.171,0.049 -0.441,0.049 -0.636,0.049 -0.611,0 -0.905,-0.22 -0.905,-0.783 V 1.395 h 1.37 v -1.64 h -1.37 v -5.016 h -1.909 z m -5.653,-3.352 c 0.979,0 1.738,0.71 1.738,1.664 0,0.954 -0.759,1.664 -1.738,1.664 -0.955,0 -1.688,-0.71 -1.688,-1.664 0,-0.954 0.733,-1.664 1.688,-1.664 m -0.367,5.114 c 1.003,0 1.787,-0.416 1.982,-1.003 v 0.881 h 1.958 v -6.656 h -1.958 v 0.881 c -0.195,-0.563 -0.979,-0.979 -1.982,-0.979 -1.933,0 -3.303,1.419 -3.303,3.426 0,1.957 1.419,3.45 3.303,3.45 m -9.544,2.423 h 2.007 v -7.342 h 3.597 v -1.859 h -5.604 z"
                  style="fill:#4c403b;fill-opacity:1;fill-rule:nonzero;stroke:none"
                  id="path9057"
                  inkscape:connector-curvature="0" />
        </g>
        <g
                id="g9059"
                transform="translate(121.5147,738.4252)">
          <path
                  d="m 0,0 v -12.85 h -13.035 v -9.304 H 0 V -36.783 H 10.542 V 0 Z"
                  style="fill:#7b6668;fill-opacity:1;fill-rule:nonzero;stroke:none"
                  id="path9061"
                  inkscape:connector-curvature="0" />
        </g>
        <g
                id="g9063"
                transform="translate(105.8153,710.9446)">
          <path
                  d="M 0,0 V 27.48 H -10.542 V -9.303 H 10.375 V 0 Z"
                  style="fill:#4c403b;fill-opacity:1;fill-rule:nonzero;stroke:none"
                  id="path9065"
                  inkscape:connector-curvature="0" />
        </g>
      </g>
    </g>
  </g>
</svg>
